<svg width="739" height="416" viewBox="0 0 739 416" fill="none" xmlns="http://www.w3.org/2000/svg">
<rect width="739" height="416" fill="#E7DACD"/>
<rect width="183" height="416" fill="white" fill-opacity="0.26"/>
<circle cx="43" cy="68" r="12" fill="#E64F18"/>
<path opacity="0.8" d="M44.679 63.2727V72H42.5739V65.2415H42.5227L40.571 66.4347V64.6108L42.723 63.2727H44.679Z" fill="white"/>
<path d="M66.2642 75V60.4545H69.3395V72.4645H75.5753V75H66.2642ZM82.5266 75.2131C81.4045 75.2131 80.4386 74.9858 79.6289 74.5312C78.824 74.072 78.2037 73.4233 77.7681 72.5852C77.3325 71.7424 77.1147 70.7457 77.1147 69.5952C77.1147 68.473 77.3325 67.4882 77.7681 66.6406C78.2037 65.7931 78.8169 65.1326 79.6076 64.6591C80.4031 64.1856 81.3358 63.9489 82.4059 63.9489C83.1256 63.9489 83.7956 64.0649 84.4158 64.2969C85.0408 64.5241 85.5853 64.8674 86.0494 65.3267C86.5181 65.786 86.8827 66.3636 87.1431 67.0597C87.4035 67.7509 87.5337 68.5606 87.5337 69.4886V70.3196H78.3221V68.4446H84.6857C84.6857 68.009 84.591 67.6231 84.4016 67.2869C84.2122 66.9508 83.9495 66.688 83.6133 66.4986C83.2818 66.3045 82.896 66.2074 82.4556 66.2074C81.9963 66.2074 81.5891 66.3139 81.234 66.527C80.8836 66.7353 80.609 67.017 80.4102 67.3722C80.2113 67.7225 80.1095 68.1132 80.1048 68.544V70.3267C80.1048 70.8665 80.2042 71.3329 80.4031 71.7259C80.6067 72.1188 80.8931 72.4219 81.2624 72.6349C81.6317 72.848 82.0697 72.9545 82.5763 72.9545C82.9125 72.9545 83.2203 72.9072 83.4996 72.8125C83.779 72.7178 84.0181 72.5758 84.217 72.3864C84.4158 72.197 84.5674 71.965 84.6715 71.6903L87.4698 71.875C87.3278 72.5473 87.0366 73.1345 86.5962 73.6364C86.1606 74.1335 85.5972 74.5218 84.9059 74.8011C84.2193 75.0758 83.4263 75.2131 82.5266 75.2131ZM92.619 75.206C91.9229 75.206 91.3027 75.0852 90.7582 74.8438C90.2137 74.5975 89.7828 74.2353 89.4656 73.7571C89.1531 73.2741 88.9968 72.6728 88.9968 71.9531C88.9968 71.3471 89.1081 70.8381 89.3306 70.4261C89.5531 70.0142 89.8562 69.6828 90.2397 69.4318C90.6232 69.1809 91.0588 68.9915 91.5465 68.8636C92.0389 68.7358 92.555 68.6458 93.0948 68.5938C93.7293 68.5275 94.2406 68.4659 94.6289 68.4091C95.0172 68.3475 95.2989 68.2576 95.4741 68.1392C95.6493 68.0208 95.7369 67.8456 95.7369 67.6136V67.571C95.7369 67.1212 95.5948 66.7732 95.3107 66.527C95.0314 66.2808 94.6336 66.1577 94.1175 66.1577C93.573 66.1577 93.1398 66.2784 92.8178 66.5199C92.4959 66.7566 92.2828 67.0549 92.1786 67.4148L89.3803 67.1875C89.5224 66.5246 89.8017 65.9517 90.2184 65.4688C90.6351 64.9811 91.1725 64.607 91.8306 64.3466C92.4935 64.0814 93.2605 63.9489 94.1317 63.9489C94.7378 63.9489 95.3178 64.0199 95.8718 64.1619C96.4305 64.304 96.9253 64.5241 97.3562 64.8224C97.7918 65.1207 98.1351 65.5043 98.386 65.973C98.637 66.437 98.7624 66.9934 98.7624 67.642V75H95.8931V73.4872H95.8079C95.6327 73.8281 95.3983 74.1288 95.1048 74.3892C94.8112 74.6449 94.4585 74.8461 94.0465 74.9929C93.6346 75.1349 93.1587 75.206 92.619 75.206ZM93.4854 73.1179C93.9305 73.1179 94.3235 73.0303 94.6644 72.8551C95.0053 72.6752 95.2728 72.4337 95.467 72.1307C95.6611 71.8277 95.7582 71.4844 95.7582 71.1009V69.9432C95.6635 70.0047 95.5333 70.0616 95.3675 70.1136C95.2066 70.161 95.0243 70.206 94.8207 70.2486C94.6171 70.2865 94.4135 70.322 94.2099 70.3551C94.0063 70.3835 93.8216 70.4096 93.6559 70.4332C93.3008 70.4853 92.9906 70.5682 92.7255 70.6818C92.4603 70.7955 92.2544 70.9493 92.1076 71.1435C91.9608 71.3329 91.8874 71.5696 91.8874 71.8537C91.8874 72.2656 92.0366 72.5805 92.3349 72.7983C92.6379 73.0114 93.0214 73.1179 93.4854 73.1179ZM101.11 75V64.0909H104.043V65.9943H104.157C104.355 65.3172 104.689 64.8059 105.158 64.4602C105.627 64.1098 106.167 63.9347 106.777 63.9347C106.929 63.9347 107.092 63.9441 107.267 63.9631C107.443 63.982 107.596 64.008 107.729 64.0412V66.7259C107.587 66.6832 107.391 66.6454 107.14 66.6122C106.889 66.5791 106.659 66.5625 106.451 66.5625C106.006 66.5625 105.608 66.6596 105.257 66.8537C104.912 67.0431 104.637 67.3082 104.434 67.6491C104.235 67.9901 104.135 68.383 104.135 68.8281V75H101.11ZM112.319 68.6932V75H109.293V64.0909H112.177V66.0156H112.305C112.546 65.3812 112.951 64.8793 113.519 64.5099C114.087 64.1359 114.776 63.9489 115.586 63.9489C116.344 63.9489 117.004 64.1146 117.567 64.446C118.131 64.7775 118.569 65.2509 118.881 65.8665C119.194 66.4773 119.35 67.2064 119.35 68.054V75H116.325V68.5938C116.329 67.9261 116.159 67.4053 115.813 67.0312C115.468 66.6525 114.992 66.4631 114.386 66.4631C113.978 66.4631 113.619 66.5507 113.306 66.7259C112.998 66.901 112.757 67.1567 112.582 67.4929C112.411 67.8243 112.324 68.2244 112.319 68.6932Z" fill="black"/>
<circle cx="248" cy="68" r="12" fill="#B6AA9E"/>
<path opacity="0.8" d="M244.817 72V70.483L248.001 67.696C248.239 67.4801 248.442 67.2827 248.61 67.1037C248.778 66.9219 248.905 66.7401 248.993 66.5582C249.081 66.3736 249.126 66.1733 249.126 65.9574C249.126 65.7159 249.073 65.5099 248.968 65.3395C248.863 65.1662 248.718 65.0327 248.533 64.9389C248.349 64.8452 248.137 64.7983 247.898 64.7983C247.657 64.7983 247.445 64.848 247.263 64.9474C247.081 65.044 246.939 65.1847 246.837 65.3693C246.738 65.554 246.688 65.7784 246.688 66.0426H244.689C244.689 65.4489 244.823 64.9361 245.09 64.5043C245.357 64.0724 245.732 63.7401 246.215 63.5071C246.701 63.2713 247.265 63.1534 247.907 63.1534C248.569 63.1534 249.144 63.2642 249.633 63.4858C250.121 63.7074 250.499 64.017 250.766 64.4148C251.036 64.8097 251.171 65.2685 251.171 65.7912C251.171 66.1236 251.104 66.4531 250.971 66.7798C250.837 67.1065 250.597 67.4673 250.251 67.8622C249.907 68.2571 249.418 68.7301 248.785 69.2812L247.741 70.2443V70.2997H251.278V72H244.817Z" fill="white"/>
<path d="M279.098 65.5469H275.987C275.93 65.1444 275.814 64.7869 275.639 64.4744C275.464 64.1572 275.239 63.8873 274.964 63.6648C274.69 63.4422 274.373 63.2718 274.013 63.1534C273.658 63.035 273.272 62.9759 272.855 62.9759C272.102 62.9759 271.446 63.1629 270.888 63.5369C270.329 63.9062 269.896 64.446 269.588 65.1562C269.28 65.8617 269.126 66.7187 269.126 67.7273C269.126 68.7642 269.28 69.6354 269.588 70.3409C269.901 71.0464 270.336 71.5791 270.895 71.9389C271.454 72.2988 272.1 72.4787 272.834 72.4787C273.246 72.4787 273.627 72.4242 273.977 72.3153C274.332 72.2064 274.647 72.0478 274.922 71.8395C275.196 71.6264 275.424 71.3684 275.604 71.0653C275.788 70.7623 275.916 70.4167 275.987 70.0284L279.098 70.0426C279.018 70.7102 278.816 71.3542 278.494 71.9744C278.177 72.59 277.749 73.1416 277.209 73.6293C276.674 74.1122 276.035 74.4957 275.291 74.7798C274.553 75.0592 273.717 75.1989 272.784 75.1989C271.487 75.1989 270.327 74.9053 269.304 74.3182C268.286 73.7311 267.481 72.8812 266.889 71.7685C266.302 70.6558 266.009 69.3087 266.009 67.7273C266.009 66.1411 266.307 64.7917 266.903 63.679C267.5 62.5663 268.31 61.7187 269.332 61.1364C270.355 60.5492 271.506 60.2557 272.784 60.2557C273.627 60.2557 274.408 60.3741 275.128 60.6108C275.852 60.8475 276.494 61.1932 277.053 61.6477C277.611 62.0975 278.066 62.6491 278.416 63.3026C278.771 63.956 278.999 64.7041 279.098 65.5469ZM286.175 75.2131C285.072 75.2131 284.118 74.9787 283.313 74.5099C282.513 74.0365 281.895 73.3783 281.46 72.5355C281.024 71.688 280.806 70.7055 280.806 69.5881C280.806 68.4612 281.024 67.4763 281.46 66.6335C281.895 65.786 282.513 65.1278 283.313 64.6591C284.118 64.1856 285.072 63.9489 286.175 63.9489C287.279 63.9489 288.23 64.1856 289.031 64.6591C289.835 65.1278 290.456 65.786 290.891 66.6335C291.327 67.4763 291.545 68.4612 291.545 69.5881C291.545 70.7055 291.327 71.688 290.891 72.5355C290.456 73.3783 289.835 74.0365 289.031 74.5099C288.23 74.9787 287.279 75.2131 286.175 75.2131ZM286.19 72.8693C286.692 72.8693 287.111 72.7273 287.447 72.4432C287.783 72.1544 288.036 71.7614 288.207 71.2642C288.382 70.767 288.469 70.2012 288.469 69.5668C288.469 68.9323 288.382 68.3665 288.207 67.8693C288.036 67.3722 287.783 66.9792 287.447 66.6903C287.111 66.4015 286.692 66.2571 286.19 66.2571C285.683 66.2571 285.257 66.4015 284.911 66.6903C284.57 66.9792 284.312 67.3722 284.137 67.8693C283.967 68.3665 283.881 68.9323 283.881 69.5668C283.881 70.2012 283.967 70.767 284.137 71.2642C284.312 71.7614 284.57 72.1544 284.911 72.4432C285.257 72.7273 285.683 72.8693 286.19 72.8693ZM300.309 67.8267V70.2273H293.675V67.8267H300.309ZM308.69 64.0909V66.3636H302.12V64.0909H308.69ZM303.612 61.4773H306.637V71.6477C306.637 71.9271 306.68 72.1449 306.765 72.3011C306.85 72.4527 306.969 72.5592 307.12 72.6207C307.276 72.6823 307.456 72.7131 307.66 72.7131C307.802 72.7131 307.944 72.7012 308.086 72.6776C308.228 72.6491 308.337 72.6278 308.413 72.6136L308.888 74.8651C308.737 74.9124 308.524 74.9669 308.249 75.0284C307.975 75.0947 307.641 75.1349 307.248 75.1491C306.519 75.1776 305.879 75.0805 305.33 74.858C304.786 74.6354 304.362 74.2898 304.059 73.821C303.756 73.3523 303.607 72.7604 303.612 72.0455V61.4773ZM315.515 75.2131C314.393 75.2131 313.427 74.9858 312.617 74.5312C311.812 74.072 311.192 73.4233 310.756 72.5852C310.321 71.7424 310.103 70.7457 310.103 69.5952C310.103 68.473 310.321 67.4882 310.756 66.6406C311.192 65.7931 311.805 65.1326 312.596 64.6591C313.391 64.1856 314.324 63.9489 315.394 63.9489C316.114 63.9489 316.784 64.0649 317.404 64.2969C318.029 64.5241 318.574 64.8674 319.038 65.3267C319.506 65.786 319.871 66.3636 320.131 67.0597C320.392 67.7509 320.522 68.5606 320.522 69.4886V70.3196H311.31V68.4446H317.674C317.674 68.009 317.579 67.6231 317.39 67.2869C317.201 66.9508 316.938 66.688 316.602 66.4986C316.27 66.3045 315.884 66.2074 315.444 66.2074C314.985 66.2074 314.577 66.3139 314.222 66.527C313.872 66.7353 313.597 67.017 313.398 67.3722C313.2 67.7225 313.098 68.1132 313.093 68.544V70.3267C313.093 70.8665 313.192 71.3329 313.391 71.7259C313.595 72.1188 313.881 72.4219 314.251 72.6349C314.62 72.848 315.058 72.9545 315.565 72.9545C315.901 72.9545 316.209 72.9072 316.488 72.8125C316.767 72.7178 317.006 72.5758 317.205 72.3864C317.404 72.197 317.556 71.965 317.66 71.6903L320.458 71.875C320.316 72.5473 320.025 73.1345 319.585 73.6364C319.149 74.1335 318.585 74.5218 317.894 74.8011C317.208 75.0758 316.415 75.2131 315.515 75.2131ZM325.607 75.206C324.911 75.206 324.291 75.0852 323.746 74.8438C323.202 74.5975 322.771 74.2353 322.454 73.7571C322.141 73.2741 321.985 72.6728 321.985 71.9531C321.985 71.3471 322.096 70.8381 322.319 70.4261C322.541 70.0142 322.844 69.6828 323.228 69.4318C323.612 69.1809 324.047 68.9915 324.535 68.8636C325.027 68.7358 325.543 68.6458 326.083 68.5938C326.718 68.5275 327.229 68.4659 327.617 68.4091C328.005 68.3475 328.287 68.2576 328.462 68.1392C328.638 68.0208 328.725 67.8456 328.725 67.6136V67.571C328.725 67.1212 328.583 66.7732 328.299 66.527C328.02 66.2808 327.622 66.1577 327.106 66.1577C326.561 66.1577 326.128 66.2784 325.806 66.5199C325.484 66.7566 325.271 67.0549 325.167 67.4148L322.369 67.1875C322.511 66.5246 322.79 65.9517 323.207 65.4688C323.623 64.9811 324.161 64.607 324.819 64.3466C325.482 64.0814 326.249 63.9489 327.12 63.9489C327.726 63.9489 328.306 64.0199 328.86 64.1619C329.419 64.304 329.914 64.5241 330.344 64.8224C330.78 65.1207 331.123 65.5043 331.374 65.973C331.625 66.437 331.751 66.9934 331.751 67.642V75H328.881V73.4872H328.796C328.621 73.8281 328.387 74.1288 328.093 74.3892C327.799 74.6449 327.447 74.8461 327.035 74.9929C326.623 75.1349 326.147 75.206 325.607 75.206ZM326.474 73.1179C326.919 73.1179 327.312 73.0303 327.653 72.8551C327.994 72.6752 328.261 72.4337 328.455 72.1307C328.649 71.8277 328.746 71.4844 328.746 71.1009V69.9432C328.652 70.0047 328.522 70.0616 328.356 70.1136C328.195 70.161 328.013 70.206 327.809 70.2486C327.605 70.2865 327.402 70.322 327.198 70.3551C326.995 70.3835 326.81 70.4096 326.644 70.4332C326.289 70.4853 325.979 70.5682 325.714 70.6818C325.449 70.7955 325.243 70.9493 325.096 71.1435C324.949 71.3329 324.876 71.5696 324.876 71.8537C324.876 72.2656 325.025 72.5805 325.323 72.7983C325.626 73.0114 326.01 73.1179 326.474 73.1179ZM339.027 75.2131C337.91 75.2131 336.948 74.9763 336.143 74.5028C335.343 74.0246 334.728 73.3617 334.297 72.5142C333.871 71.6667 333.658 70.6913 333.658 69.5881C333.658 68.4706 333.873 67.4905 334.304 66.6477C334.74 65.8002 335.357 65.1397 336.158 64.6662C336.958 64.188 337.91 63.9489 339.013 63.9489C339.964 63.9489 340.798 64.1217 341.513 64.4673C342.228 64.813 342.794 65.2983 343.21 65.9233C343.627 66.5483 343.857 67.2822 343.899 68.125H341.044C340.964 67.5805 340.75 67.1425 340.405 66.8111C340.064 66.4749 339.616 66.3068 339.062 66.3068C338.594 66.3068 338.184 66.4347 337.834 66.6903C337.488 66.9413 337.218 67.3082 337.024 67.7912C336.83 68.2741 336.733 68.8589 336.733 69.5455C336.733 70.2415 336.828 70.8333 337.017 71.321C337.211 71.8087 337.483 72.1804 337.834 72.4361C338.184 72.6918 338.594 72.8196 339.062 72.8196C339.408 72.8196 339.718 72.7486 339.993 72.6065C340.272 72.4645 340.502 72.2585 340.682 71.9886C340.866 71.714 340.987 71.3849 341.044 71.0014H343.899C343.852 71.8348 343.625 72.5687 343.217 73.2031C342.815 73.8329 342.259 74.3253 341.548 74.6804C340.838 75.0355 339.998 75.2131 339.027 75.2131ZM348.862 68.6932V75H345.836V60.4545H348.777V66.0156H348.904C349.151 65.3717 349.548 64.8674 350.098 64.5028C350.647 64.1335 351.336 63.9489 352.164 63.9489C352.922 63.9489 353.583 64.1146 354.146 64.446C354.714 64.7727 355.154 65.2438 355.467 65.8594C355.784 66.4702 355.94 67.2017 355.936 68.054V75H352.91V68.5938C352.915 67.9214 352.744 67.3982 352.399 67.0241C352.058 66.6501 351.58 66.4631 350.964 66.4631C350.552 66.4631 350.188 66.5507 349.87 66.7259C349.558 66.901 349.312 67.1567 349.132 67.4929C348.957 67.8243 348.867 68.2244 348.862 68.6932Z" fill="black"/>
<circle cx="413" cy="68" r="12" fill="#B6AA9E"/>
<path opacity="0.8" d="M412.461 72.1193C411.796 72.1193 411.207 72.0057 410.693 71.7784C410.181 71.5483 409.778 71.2315 409.482 70.8281C409.187 70.4247 409.036 69.9602 409.031 69.4347H411.153C411.161 69.625 411.222 69.794 411.336 69.9418C411.45 70.0866 411.605 70.2003 411.801 70.2827C411.997 70.3651 412.22 70.4062 412.47 70.4062C412.72 70.4062 412.94 70.3622 413.13 70.2741C413.323 70.1832 413.474 70.0597 413.582 69.9034C413.69 69.7443 413.742 69.5625 413.74 69.358C413.742 69.1534 413.684 68.9716 413.565 68.8125C413.445 68.6534 413.276 68.5298 413.058 68.4418C412.842 68.3537 412.586 68.3097 412.291 68.3097H411.443V66.8097H412.291C412.549 66.8097 412.776 66.767 412.972 66.6818C413.171 66.5966 413.326 66.4773 413.437 66.3239C413.548 66.1676 413.602 65.9886 413.599 65.7869C413.602 65.5909 413.555 65.419 413.458 65.2713C413.365 65.1207 413.232 65.0043 413.062 64.9219C412.894 64.8395 412.7 64.7983 412.478 64.7983C412.245 64.7983 412.034 64.8395 411.843 64.9219C411.656 65.0043 411.507 65.1207 411.396 65.2713C411.285 65.4219 411.227 65.5966 411.221 65.7955H409.205C409.211 65.2756 409.356 64.8182 409.64 64.4233C409.924 64.0256 410.311 63.7145 410.799 63.4901C411.291 63.2656 411.85 63.1534 412.478 63.1534C413.103 63.1534 413.653 63.2628 414.127 63.4815C414.602 63.7003 414.971 63.9986 415.235 64.3764C415.499 64.7514 415.632 65.1761 415.632 65.6506C415.634 66.142 415.474 66.5469 415.15 66.8651C414.829 67.1832 414.416 67.3793 413.91 67.4531V67.5213C414.586 67.6009 415.096 67.8196 415.44 68.1776C415.786 68.5355 415.958 68.983 415.955 69.5199C415.955 70.0256 415.806 70.4744 415.508 70.8665C415.213 71.2557 414.801 71.5625 414.272 71.7869C413.747 72.0085 413.143 72.1193 412.461 72.1193Z" fill="white"/>
<path d="M430.71 62.9901V60.4545H442.656V62.9901H438.203V75H435.163V62.9901H430.71ZM446.193 75.206C445.497 75.206 444.877 75.0852 444.332 74.8438C443.788 74.5975 443.357 74.2353 443.04 73.7571C442.727 73.2741 442.571 72.6728 442.571 71.9531C442.571 71.3471 442.682 70.8381 442.905 70.4261C443.127 70.0142 443.43 69.6828 443.814 69.4318C444.197 69.1809 444.633 68.9915 445.121 68.8636C445.613 68.7358 446.129 68.6458 446.669 68.5938C447.304 68.5275 447.815 68.4659 448.203 68.4091C448.591 68.3475 448.873 68.2576 449.048 68.1392C449.223 68.0208 449.311 67.8456 449.311 67.6136V67.571C449.311 67.1212 449.169 66.7732 448.885 66.527C448.606 66.2808 448.208 66.1577 447.692 66.1577C447.147 66.1577 446.714 66.2784 446.392 66.5199C446.07 66.7566 445.857 67.0549 445.753 67.4148L442.955 67.1875C443.097 66.5246 443.376 65.9517 443.793 65.4688C444.209 64.9811 444.747 64.607 445.405 64.3466C446.068 64.0814 446.835 63.9489 447.706 63.9489C448.312 63.9489 448.892 64.0199 449.446 64.1619C450.005 64.304 450.5 64.5241 450.93 64.8224C451.366 65.1207 451.709 65.5043 451.96 65.973C452.211 66.437 452.337 66.9934 452.337 67.642V75H449.467V73.4872H449.382C449.207 73.8281 448.973 74.1288 448.679 74.3892C448.385 74.6449 448.033 74.8461 447.621 74.9929C447.209 75.1349 446.733 75.206 446.193 75.206ZM447.06 73.1179C447.505 73.1179 447.898 73.0303 448.239 72.8551C448.58 72.6752 448.847 72.4337 449.041 72.1307C449.235 71.8277 449.332 71.4844 449.332 71.1009V69.9432C449.238 70.0047 449.107 70.0616 448.942 70.1136C448.781 70.161 448.598 70.206 448.395 70.2486C448.191 70.2865 447.988 70.322 447.784 70.3551C447.58 70.3835 447.396 70.4096 447.23 70.4332C446.875 70.4853 446.565 70.5682 446.3 70.6818C446.035 70.7955 445.829 70.9493 445.682 71.1435C445.535 71.3329 445.462 71.5696 445.462 71.8537C445.462 72.2656 445.611 72.5805 445.909 72.7983C446.212 73.0114 446.596 73.1179 447.06 73.1179ZM457.425 71.8608L457.433 68.2315H457.873L461.367 64.0909H464.84L460.146 69.5739H459.428L457.425 71.8608ZM454.684 75V60.4545H457.71V75H454.684ZM461.502 75L458.292 70.2486L460.309 68.1108L465.046 75H461.502ZM470.847 75.2131C469.725 75.2131 468.759 74.9858 467.949 74.5312C467.144 74.072 466.524 73.4233 466.088 72.5852C465.653 71.7424 465.435 70.7457 465.435 69.5952C465.435 68.473 465.653 67.4882 466.088 66.6406C466.524 65.7931 467.137 65.1326 467.928 64.6591C468.723 64.1856 469.656 63.9489 470.726 63.9489C471.446 63.9489 472.116 64.0649 472.736 64.2969C473.361 64.5241 473.906 64.8674 474.37 65.3267C474.838 65.786 475.203 66.3636 475.463 67.0597C475.724 67.7509 475.854 68.5606 475.854 69.4886V70.3196H466.642V68.4446H473.006C473.006 68.009 472.911 67.6231 472.722 67.2869C472.533 66.9508 472.27 66.688 471.934 66.4986C471.602 66.3045 471.216 66.2074 470.776 66.2074C470.317 66.2074 469.909 66.3139 469.554 66.527C469.204 66.7353 468.929 67.017 468.73 67.3722C468.532 67.7225 468.43 68.1132 468.425 68.544V70.3267C468.425 70.8665 468.525 71.3329 468.723 71.7259C468.927 72.1188 469.213 72.4219 469.583 72.6349C469.952 72.848 470.39 72.9545 470.897 72.9545C471.233 72.9545 471.541 72.9072 471.82 72.8125C472.099 72.7178 472.338 72.5758 472.537 72.3864C472.736 72.197 472.888 71.965 472.992 71.6903L475.79 71.875C475.648 72.5473 475.357 73.1345 474.917 73.6364C474.481 74.1335 473.917 74.5218 473.226 74.8011C472.54 75.0758 471.747 75.2131 470.847 75.2131ZM482.757 75.2131C481.654 75.2131 480.7 74.9787 479.895 74.5099C479.095 74.0365 478.477 73.3783 478.042 72.5355C477.606 71.688 477.388 70.7055 477.388 69.5881C477.388 68.4612 477.606 67.4763 478.042 66.6335C478.477 65.786 479.095 65.1278 479.895 64.6591C480.7 64.1856 481.654 63.9489 482.757 63.9489C483.861 63.9489 484.812 64.1856 485.613 64.6591C486.417 65.1278 487.038 65.786 487.473 66.6335C487.909 67.4763 488.127 68.4612 488.127 69.5881C488.127 70.7055 487.909 71.688 487.473 72.5355C487.038 73.3783 486.417 74.0365 485.613 74.5099C484.812 74.9787 483.861 75.2131 482.757 75.2131ZM482.772 72.8693C483.274 72.8693 483.693 72.7273 484.029 72.4432C484.365 72.1544 484.618 71.7614 484.789 71.2642C484.964 70.767 485.051 70.2012 485.051 69.5668C485.051 68.9323 484.964 68.3665 484.789 67.8693C484.618 67.3722 484.365 66.9792 484.029 66.6903C483.693 66.4015 483.274 66.2571 482.772 66.2571C482.265 66.2571 481.839 66.4015 481.493 66.6903C481.152 66.9792 480.894 67.3722 480.719 67.8693C480.549 68.3665 480.463 68.9323 480.463 69.5668C480.463 70.2012 480.549 70.767 480.719 71.2642C480.894 71.7614 481.152 72.1544 481.493 72.4432C481.839 72.7273 482.265 72.8693 482.772 72.8693ZM499.913 64.0909L496.099 75H492.69L488.876 64.0909H492.072L494.338 71.8963H494.451L496.71 64.0909H499.913ZM506.081 75.2131C504.959 75.2131 503.993 74.9858 503.184 74.5312C502.379 74.072 501.758 73.4233 501.323 72.5852C500.887 71.7424 500.669 70.7457 500.669 69.5952C500.669 68.473 500.887 67.4882 501.323 66.6406C501.758 65.7931 502.372 65.1326 503.162 64.6591C503.958 64.1856 504.891 63.9489 505.961 63.9489C506.68 63.9489 507.35 64.0649 507.971 64.2969C508.596 64.5241 509.14 64.8674 509.604 65.3267C510.073 65.786 510.437 66.3636 510.698 67.0597C510.958 67.7509 511.088 68.5606 511.088 69.4886V70.3196H501.877V68.4446H508.24C508.24 68.009 508.146 67.6231 507.956 67.2869C507.767 66.9508 507.504 66.688 507.168 66.4986C506.837 66.3045 506.451 66.2074 506.01 66.2074C505.551 66.2074 505.144 66.3139 504.789 66.527C504.438 66.7353 504.164 67.017 503.965 67.3722C503.766 67.7225 503.664 68.1132 503.659 68.544V70.3267C503.659 70.8665 503.759 71.3329 503.958 71.7259C504.161 72.1188 504.448 72.4219 504.817 72.6349C505.186 72.848 505.624 72.9545 506.131 72.9545C506.467 72.9545 506.775 72.9072 507.054 72.8125C507.334 72.7178 507.573 72.5758 507.772 72.3864C507.971 72.197 508.122 71.965 508.226 71.6903L511.025 71.875C510.882 72.5473 510.591 73.1345 510.151 73.6364C509.715 74.1335 509.152 74.5218 508.461 74.8011C507.774 75.0758 506.981 75.2131 506.081 75.2131ZM513.063 75V64.0909H515.996V65.9943H516.11C516.309 65.3172 516.642 64.8059 517.111 64.4602C517.58 64.1098 518.12 63.9347 518.73 63.9347C518.882 63.9347 519.045 63.9441 519.221 63.9631C519.396 63.982 519.55 64.008 519.682 64.0412V66.7259C519.54 66.6832 519.344 66.6454 519.093 66.6122C518.842 66.5791 518.612 66.5625 518.404 66.5625C517.959 66.5625 517.561 66.6596 517.211 66.8537C516.865 67.0431 516.59 67.3082 516.387 67.6491C516.188 67.9901 516.088 68.383 516.088 68.8281V75H513.063Z" fill="black"/>
<circle cx="578" cy="68" r="12" fill="#B6AA9E"/>
<path opacity="0.8" d="M573.9 70.5511V68.9062L577.475 63.2727H578.937V65.5057H578.089L575.997 68.821V68.8892H581.174V70.5511H573.9ZM578.115 72V70.0483L578.157 69.3281V63.2727H580.13V72H578.115Z" fill="white"/>
<path d="M601.42 75H596.264V60.4545H601.463C602.926 60.4545 604.186 60.7457 605.241 61.3281C606.297 61.9058 607.109 62.7367 607.678 63.821C608.25 64.9053 608.537 66.2027 608.537 67.7131C608.537 69.2282 608.25 70.5303 607.678 71.6193C607.109 72.7083 606.293 73.544 605.227 74.1264C604.167 74.7088 602.898 75 601.42 75ZM599.339 72.3651H601.293C602.202 72.3651 602.966 72.2041 603.587 71.8821C604.212 71.5554 604.68 71.0511 604.993 70.3693C605.31 69.6828 605.469 68.7973 605.469 67.7131C605.469 66.6383 605.31 65.7599 604.993 65.0781C604.68 64.3963 604.214 63.8944 603.594 63.5724C602.973 63.2505 602.209 63.0895 601.3 63.0895H599.339V72.3651ZM615.73 75.2131C614.608 75.2131 613.642 74.9858 612.832 74.5312C612.027 74.072 611.407 73.4233 610.971 72.5852C610.536 71.7424 610.318 70.7457 610.318 69.5952C610.318 68.473 610.536 67.4882 610.971 66.6406C611.407 65.7931 612.02 65.1326 612.811 64.6591C613.606 64.1856 614.539 63.9489 615.609 63.9489C616.329 63.9489 616.999 64.0649 617.619 64.2969C618.244 64.5241 618.788 64.8674 619.252 65.3267C619.721 65.786 620.086 66.3636 620.346 67.0597C620.607 67.7509 620.737 68.5606 620.737 69.4886V70.3196H611.525V68.4446H617.889C617.889 68.009 617.794 67.6231 617.605 67.2869C617.415 66.9508 617.153 66.688 616.816 66.4986C616.485 66.3045 616.099 66.2074 615.659 66.2074C615.199 66.2074 614.792 66.3139 614.437 66.527C614.087 66.7353 613.812 67.017 613.613 67.3722C613.414 67.7225 613.313 68.1132 613.308 68.544V70.3267C613.308 70.8665 613.407 71.3329 613.606 71.7259C613.81 72.1188 614.096 72.4219 614.466 72.6349C614.835 72.848 615.273 72.9545 615.779 72.9545C616.116 72.9545 616.423 72.9072 616.703 72.8125C616.982 72.7178 617.221 72.5758 617.42 72.3864C617.619 72.197 617.77 71.965 617.875 71.6903L620.673 71.875C620.531 72.5473 620.24 73.1345 619.799 73.6364C619.364 74.1335 618.8 74.5218 618.109 74.8011C617.422 75.0758 616.629 75.2131 615.73 75.2131ZM625.737 60.4545V75H622.711V60.4545H625.737ZM628.161 75V64.0909H631.186V75H628.161ZM629.68 62.6847C629.231 62.6847 628.845 62.5355 628.523 62.2372C628.205 61.9342 628.047 61.572 628.047 61.1506C628.047 60.7339 628.205 60.3764 628.523 60.0781C628.845 59.7751 629.231 59.6236 629.68 59.6236C630.13 59.6236 630.514 59.7751 630.831 60.0781C631.153 60.3764 631.314 60.7339 631.314 61.1506C631.314 61.572 631.153 61.9342 630.831 62.2372C630.514 62.5355 630.13 62.6847 629.68 62.6847ZM643.78 64.0909L639.966 75H636.557L632.743 64.0909H635.939L638.205 71.8963H638.319L640.577 64.0909H643.78ZM649.949 75.2131C648.826 75.2131 647.86 74.9858 647.051 74.5312C646.246 74.072 645.626 73.4233 645.19 72.5852C644.754 71.7424 644.537 70.7457 644.537 69.5952C644.537 68.473 644.754 67.4882 645.19 66.6406C645.626 65.7931 646.239 65.1326 647.029 64.6591C647.825 64.1856 648.758 63.9489 649.828 63.9489C650.547 63.9489 651.217 64.0649 651.838 64.2969C652.463 64.5241 653.007 64.8674 653.471 65.3267C653.94 65.786 654.305 66.3636 654.565 67.0597C654.825 67.7509 654.956 68.5606 654.956 69.4886V70.3196H645.744V68.4446H652.108C652.108 68.009 652.013 67.6231 651.824 67.2869C651.634 66.9508 651.371 66.688 651.035 66.4986C650.704 66.3045 650.318 66.2074 649.877 66.2074C649.418 66.2074 649.011 66.3139 648.656 66.527C648.306 66.7353 648.031 67.017 647.832 67.3722C647.633 67.7225 647.531 68.1132 647.527 68.544V70.3267C647.527 70.8665 647.626 71.3329 647.825 71.7259C648.029 72.1188 648.315 72.4219 648.684 72.6349C649.054 72.848 649.492 72.9545 649.998 72.9545C650.334 72.9545 650.642 72.9072 650.922 72.8125C651.201 72.7178 651.44 72.5758 651.639 72.3864C651.838 72.197 651.989 71.965 652.093 71.6903L654.892 71.875C654.75 72.5473 654.458 73.1345 654.018 73.6364C653.583 74.1335 653.019 74.5218 652.328 74.8011C651.641 75.0758 650.848 75.2131 649.949 75.2131ZM656.93 75V64.0909H659.863V65.9943H659.977C660.176 65.3172 660.51 64.8059 660.978 64.4602C661.447 64.1098 661.987 63.9347 662.598 63.9347C662.749 63.9347 662.913 63.9441 663.088 63.9631C663.263 63.982 663.417 64.008 663.549 64.0412V66.7259C663.407 66.6832 663.211 66.6454 662.96 66.6122C662.709 66.5791 662.479 66.5625 662.271 66.5625C661.826 66.5625 661.428 66.6596 661.078 66.8537C660.732 67.0431 660.458 67.3082 660.254 67.6491C660.055 67.9901 659.956 68.383 659.956 68.8281V75H656.93Z" fill="black"/>
<path d="M91.1851 181.993C95.3254 181.993 98.6817 178.637 98.6817 174.497C98.6817 170.356 95.3254 167 91.1851 167C87.0449 167 83.6885 170.356 83.6885 174.497C83.6885 178.637 87.0449 181.993 91.1851 181.993Z" fill="black"/>
<path d="M104.37 200H78V196.233C78 188.943 83.8956 183.048 91.185 183.048C98.4744 183.048 104.37 188.943 104.37 196.233V200Z" fill="black"/>
<path d="M51.1851 233.993C55.3254 233.993 58.6817 230.637 58.6817 226.497C58.6817 222.356 55.3254 219 51.1851 219C47.0449 219 43.6885 222.356 43.6885 226.497C43.6885 230.637 47.0449 233.993 51.1851 233.993Z" fill="#E64F18"/>
<path d="M64.37 252H38V248.233C38 240.943 43.8956 235.048 51.185 235.048C58.4744 235.048 64.37 240.943 64.37 248.233V252Z" fill="#E64F18"/>
<path d="M89.5552 233.993C93.6955 233.993 97.0519 230.637 97.0519 226.497C97.0519 222.356 93.6955 219 89.5552 219C85.415 219 82.0586 222.356 82.0586 226.497C82.0586 230.637 85.415 233.993 89.5552 233.993Z" fill="#E64F18"/>
<path d="M102.74 252H76.3701V248.233C76.3701 240.943 82.2657 235.048 89.5551 235.048C96.8446 235.048 102.74 240.943 102.74 248.233V252Z" fill="#E64F18"/>
<path d="M127.925 233.993C132.066 233.993 135.422 230.637 135.422 226.497C135.422 222.356 132.066 219 127.925 219C123.785 219 120.429 222.356 120.429 226.497C120.429 230.637 123.785 233.993 127.925 233.993Z" fill="#E64F18"/>
<path d="M141.11 252H114.74V248.233C114.74 240.943 120.636 235.048 127.925 235.048C135.215 235.048 141.11 240.943 141.11 248.233V252Z" fill="#E64F18"/>
<path d="M256.185 233.993C260.325 233.993 263.682 230.637 263.682 226.497C263.682 222.356 260.325 219 256.185 219C252.045 219 248.688 222.356 248.688 226.497C248.688 230.637 252.045 233.993 256.185 233.993Z" fill="#E64F18"/>
<path d="M269.37 252H243V248.233C243 240.943 248.896 235.048 256.185 235.048C263.474 235.048 269.37 240.943 269.37 248.233V252Z" fill="#E64F18"/>
<path d="M294.555 233.993C298.696 233.993 302.052 230.637 302.052 226.497C302.052 222.356 298.696 219 294.555 219C290.415 219 287.059 222.356 287.059 226.497C287.059 230.637 290.415 233.993 294.555 233.993Z" fill="#E64F18"/>
<path d="M307.74 252H281.37V248.233C281.37 240.943 287.266 235.048 294.555 235.048C301.845 235.048 307.74 240.943 307.74 248.233V252Z" fill="#E64F18"/>
<path d="M332.925 233.993C337.066 233.993 340.422 230.637 340.422 226.497C340.422 222.356 337.066 219 332.925 219C328.785 219 325.429 222.356 325.429 226.497C325.429 230.637 328.785 233.993 332.925 233.993Z" fill="#E64F18"/>
<path d="M346.11 252H319.74V248.233C319.74 240.943 325.636 235.048 332.925 235.048C340.215 235.048 346.11 240.943 346.11 248.233V252Z" fill="#E64F18"/>
<path d="M423.185 233.993C427.325 233.993 430.682 230.637 430.682 226.497C430.682 222.356 427.325 219 423.185 219C419.045 219 415.688 222.356 415.688 226.497C415.688 230.637 419.045 233.993 423.185 233.993Z" fill="black"/>
<path d="M436.37 252H410V248.233C410 240.943 415.896 235.048 423.185 235.048C430.474 235.048 436.37 240.943 436.37 248.233V252Z" fill="black"/>
<path d="M461.555 233.993C465.696 233.993 469.052 230.637 469.052 226.497C469.052 222.356 465.696 219 461.555 219C457.415 219 454.059 222.356 454.059 226.497C454.059 230.637 457.415 233.993 461.555 233.993Z" fill="#E64F18"/>
<path d="M474.74 252H448.37V248.233C448.37 240.943 454.266 235.048 461.555 235.048C468.845 235.048 474.74 240.943 474.74 248.233V252Z" fill="#E64F18"/>
<path d="M499.925 233.993C504.066 233.993 507.422 230.637 507.422 226.497C507.422 222.356 504.066 219 499.925 219C495.785 219 492.429 222.356 492.429 226.497C492.429 230.637 495.785 233.993 499.925 233.993Z" fill="#E64F18"/>
<path d="M513.11 252H486.74V248.233C486.74 240.943 492.636 235.048 499.925 235.048C507.215 235.048 513.11 240.943 513.11 248.233V252Z" fill="#E64F18"/>
<path d="M51.1851 276.993C55.3254 276.993 58.6817 273.637 58.6817 269.497C58.6817 265.356 55.3254 262 51.1851 262C47.0449 262 43.6885 265.356 43.6885 269.497C43.6885 273.637 47.0449 276.993 51.1851 276.993Z" fill="#E64F18"/>
<path d="M64.37 295H38V291.233C38 283.943 43.8956 278.048 51.185 278.048C58.4744 278.048 64.37 283.943 64.37 291.233V295Z" fill="#E64F18"/>
<path d="M89.5552 276.993C93.6955 276.993 97.0519 273.637 97.0519 269.497C97.0519 265.356 93.6955 262 89.5552 262C85.415 262 82.0586 265.356 82.0586 269.497C82.0586 273.637 85.415 276.993 89.5552 276.993Z" fill="#E64F18"/>
<path d="M102.74 295H76.3701V291.233C76.3701 283.943 82.2657 278.048 89.5551 278.048C96.8446 278.048 102.74 283.943 102.74 291.233V295Z" fill="#E64F18"/>
<path d="M127.925 276.993C132.066 276.993 135.422 273.637 135.422 269.497C135.422 265.356 132.066 262 127.925 262C123.785 262 120.429 265.356 120.429 269.497C120.429 273.637 123.785 276.993 127.925 276.993Z" fill="#E64F18"/>
<path d="M141.11 295H114.74V291.233C114.74 283.943 120.636 278.048 127.925 278.048C135.215 278.048 141.11 283.943 141.11 291.233V295Z" fill="#E64F18"/>
<path d="M256.185 276.993C260.325 276.993 263.682 273.637 263.682 269.497C263.682 265.356 260.325 262 256.185 262C252.045 262 248.688 265.356 248.688 269.497C248.688 273.637 252.045 276.993 256.185 276.993Z" fill="#E64F18"/>
<path d="M269.37 295H243V291.233C243 283.943 248.896 278.048 256.185 278.048C263.474 278.048 269.37 283.943 269.37 291.233V295Z" fill="#E64F18"/>
<path d="M294.555 276.993C298.696 276.993 302.052 273.637 302.052 269.497C302.052 265.356 298.696 262 294.555 262C290.415 262 287.059 265.356 287.059 269.497C287.059 273.637 290.415 276.993 294.555 276.993Z" fill="#E64F18"/>
<path d="M307.74 295H281.37V291.233C281.37 283.943 287.266 278.048 294.555 278.048C301.845 278.048 307.74 283.943 307.74 291.233V295Z" fill="#E64F18"/>
<path d="M332.925 276.993C337.066 276.993 340.422 273.637 340.422 269.497C340.422 265.356 337.066 262 332.925 262C328.785 262 325.429 265.356 325.429 269.497C325.429 273.637 328.785 276.993 332.925 276.993Z" fill="#E64F18"/>
<path d="M346.11 295H319.74V291.233C319.74 283.943 325.636 278.048 332.925 278.048C340.215 278.048 346.11 283.943 346.11 291.233V295Z" fill="#E64F18"/>
<path d="M423.185 276.993C427.325 276.993 430.682 273.637 430.682 269.497C430.682 265.356 427.325 262 423.185 262C419.045 262 415.688 265.356 415.688 269.497C415.688 273.637 419.045 276.993 423.185 276.993Z" fill="#E64F18"/>
<path d="M436.37 295H410V291.233C410 283.943 415.896 278.048 423.185 278.048C430.474 278.048 436.37 283.943 436.37 291.233V295Z" fill="#E64F18"/>
<path d="M461.555 276.993C465.696 276.993 469.052 273.637 469.052 269.497C469.052 265.356 465.696 262 461.555 262C457.415 262 454.059 265.356 454.059 269.497C454.059 273.637 457.415 276.993 461.555 276.993Z" fill="#E64F18"/>
<path d="M474.74 295H448.37V291.233C448.37 283.943 454.266 278.048 461.555 278.048C468.845 278.048 474.74 283.943 474.74 291.233V295Z" fill="#E64F18"/>
<path d="M499.925 276.993C504.066 276.993 507.422 273.637 507.422 269.497C507.422 265.356 504.066 262 499.925 262C495.785 262 492.429 265.356 492.429 269.497C492.429 273.637 495.785 276.993 499.925 276.993Z" fill="#E64F18"/>
<path d="M513.11 295H486.74V291.233C486.74 283.943 492.636 278.048 499.925 278.048C507.215 278.048 513.11 283.943 513.11 291.233V295Z" fill="#E64F18"/>
<path d="M588.185 233.993C592.325 233.993 595.682 230.637 595.682 226.497C595.682 222.356 592.325 219 588.185 219C584.045 219 580.688 222.356 580.688 226.497C580.688 230.637 584.045 233.993 588.185 233.993Z" fill="black"/>
<path d="M601.37 252H575V248.233C575 240.943 580.896 235.048 588.185 235.048C595.474 235.048 601.37 240.943 601.37 248.233V252Z" fill="black"/>
<path d="M626.555 233.993C630.696 233.993 634.052 230.637 634.052 226.497C634.052 222.356 630.696 219 626.555 219C622.415 219 619.059 222.356 619.059 226.497C619.059 230.637 622.415 233.993 626.555 233.993Z" fill="#F0906D"/>
<path d="M639.74 252H613.37V248.233C613.37 240.943 619.266 235.048 626.555 235.048C633.845 235.048 639.74 240.943 639.74 248.233V252Z" fill="#F0906D"/>
<path d="M664.925 233.993C669.066 233.993 672.422 230.637 672.422 226.497C672.422 222.356 669.066 219 664.925 219C660.785 219 657.429 222.356 657.429 226.497C657.429 230.637 660.785 233.993 664.925 233.993Z" fill="#F0906D"/>
<path d="M678.11 252H651.74V248.233C651.74 240.943 657.636 235.048 664.925 235.048C672.215 235.048 678.11 240.943 678.11 248.233V252Z" fill="#F0906D"/>
<path d="M588.185 276.993C592.325 276.993 595.682 273.637 595.682 269.497C595.682 265.356 592.325 262 588.185 262C584.045 262 580.688 265.356 580.688 269.497C580.688 273.637 584.045 276.993 588.185 276.993Z" fill="#F0906D"/>
<path d="M601.37 295H575V291.233C575 283.943 580.896 278.048 588.185 278.048C595.474 278.048 601.37 283.943 601.37 291.233V295Z" fill="#F0906D"/>
<path d="M626.555 276.993C630.696 276.993 634.052 273.637 634.052 269.497C634.052 265.356 630.696 262 626.555 262C622.415 262 619.059 265.356 619.059 269.497C619.059 273.637 622.415 276.993 626.555 276.993Z" fill="#F0906D"/>
<path d="M639.74 295H613.37V291.233C613.37 283.943 619.266 278.048 626.555 278.048C633.845 278.048 639.74 283.943 639.74 291.233V295Z" fill="#F0906D"/>
<path d="M664.925 276.993C669.066 276.993 672.422 273.637 672.422 269.497C672.422 265.356 669.066 262 664.925 262C660.785 262 657.429 265.356 657.429 269.497C657.429 273.637 660.785 276.993 664.925 276.993Z" fill="#F0906D"/>
<path d="M678.11 295H651.74V291.233C651.74 283.943 657.636 278.048 664.925 278.048C672.215 278.048 678.11 283.943 678.11 291.233V295Z" fill="#F0906D"/>
<path d="M400.19 353.45C403.075 353.45 405.415 351.111 405.415 348.225C405.415 345.339 403.075 343 400.19 343C397.304 343 394.965 345.339 394.965 348.225C394.965 351.111 397.304 353.45 400.19 353.45Z" fill="black"/>
<path d="M409.379 366H391V363.374C391 358.294 395.109 354.185 400.19 354.185C405.27 354.185 409.379 358.294 409.379 363.374V366Z" fill="black"/>
<path d="M418.415 350.663H417.22C417.186 350.467 417.123 350.293 417.031 350.142C416.94 349.989 416.826 349.859 416.689 349.752C416.553 349.646 416.397 349.566 416.223 349.512C416.05 349.457 415.864 349.429 415.663 349.429C415.308 349.429 414.992 349.519 414.717 349.698C414.443 349.875 414.227 350.135 414.072 350.478C413.916 350.819 413.839 351.235 413.839 351.727C413.839 352.228 413.916 352.65 414.072 352.993C414.229 353.334 414.445 353.592 414.717 353.766C414.992 353.939 415.307 354.025 415.66 354.025C415.856 354.025 416.04 354 416.21 353.949C416.383 353.895 416.537 353.817 416.673 353.715C416.812 353.613 416.928 353.487 417.022 353.338C417.118 353.189 417.184 353.018 417.22 352.827L418.415 352.833C418.37 353.144 418.274 353.436 418.124 353.709C417.977 353.982 417.785 354.222 417.546 354.431C417.307 354.638 417.028 354.8 416.709 354.917C416.389 355.032 416.034 355.089 415.644 355.089C415.069 355.089 414.555 354.956 414.104 354.69C413.652 354.424 413.296 354.039 413.036 353.536C412.776 353.033 412.646 352.43 412.646 351.727C412.646 351.022 412.777 350.419 413.04 349.918C413.302 349.415 413.658 349.031 414.11 348.765C414.562 348.498 415.073 348.365 415.644 348.365C416.009 348.365 416.347 348.416 416.661 348.518C416.974 348.621 417.253 348.771 417.498 348.969C417.743 349.165 417.944 349.406 418.102 349.691C418.262 349.975 418.366 350.299 418.415 350.663ZM419.501 348.455H420.952L422.895 353.197H422.972L424.915 348.455H426.366V355H425.228V350.503H425.168L423.359 354.981H422.509L420.7 350.494H420.639V355H419.501V348.455ZM431.783 348.455H432.969V352.731C432.969 353.2 432.858 353.612 432.637 353.968C432.417 354.324 432.108 354.602 431.71 354.802C431.311 355 430.846 355.099 430.313 355.099C429.778 355.099 429.312 355 428.913 354.802C428.515 354.602 428.206 354.324 427.987 353.968C427.767 353.612 427.657 353.2 427.657 352.731V348.455H428.843V352.632C428.843 352.904 428.903 353.147 429.022 353.36C429.143 353.574 429.314 353.741 429.533 353.862C429.753 353.982 430.013 354.041 430.313 354.041C430.614 354.041 430.874 353.982 431.093 353.862C431.315 353.741 431.485 353.574 431.604 353.36C431.724 353.147 431.783 352.904 431.783 352.632V348.455ZM416.37 359.254C416.34 358.975 416.214 358.757 415.993 358.602C415.773 358.446 415.488 358.369 415.136 358.369C414.889 358.369 414.677 358.406 414.5 358.48C414.323 358.555 414.188 358.656 414.094 358.784C414 358.912 413.953 359.058 413.95 359.222C413.95 359.358 413.981 359.477 414.043 359.577C414.107 359.677 414.193 359.762 414.302 359.832C414.411 359.901 414.531 359.958 414.663 360.005C414.795 360.052 414.928 360.091 415.063 360.123L415.676 360.277C415.923 360.334 416.161 360.412 416.389 360.51C416.619 360.608 416.825 360.732 417.006 360.881C417.189 361.03 417.334 361.21 417.44 361.421C417.547 361.632 417.6 361.879 417.6 362.162C417.6 362.546 417.502 362.884 417.306 363.175C417.11 363.465 416.827 363.692 416.456 363.856C416.087 364.018 415.641 364.099 415.117 364.099C414.608 364.099 414.166 364.02 413.791 363.863C413.418 363.705 413.126 363.475 412.915 363.172C412.706 362.87 412.593 362.501 412.576 362.066H413.743C413.76 362.294 413.83 362.484 413.954 362.635C414.077 362.787 414.238 362.9 414.436 362.974C414.636 363.049 414.86 363.086 415.107 363.086C415.365 363.086 415.591 363.048 415.785 362.971C415.981 362.892 416.134 362.783 416.245 362.645C416.356 362.504 416.412 362.34 416.415 362.153C416.412 361.982 416.362 361.842 416.264 361.731C416.166 361.618 416.029 361.524 415.852 361.45C415.677 361.373 415.473 361.305 415.238 361.245L414.494 361.053C413.955 360.915 413.528 360.705 413.215 360.424C412.904 360.14 412.749 359.764 412.749 359.295C412.749 358.91 412.853 358.572 413.062 358.282C413.273 357.993 413.559 357.768 413.922 357.608C414.284 357.446 414.694 357.365 415.152 357.365C415.617 357.365 416.024 357.446 416.373 357.608C416.725 357.768 417 357.99 417.201 358.276C417.401 358.559 417.504 358.885 417.511 359.254H416.37ZM421.058 359.091V359.986H418.235V359.091H421.058ZM418.932 357.915H420.089V362.523C420.089 362.679 420.113 362.798 420.159 362.881C420.208 362.962 420.272 363.018 420.351 363.048C420.43 363.077 420.517 363.092 420.613 363.092C420.686 363.092 420.752 363.087 420.811 363.076C420.873 363.066 420.92 363.056 420.952 363.048L421.147 363.952C421.085 363.973 420.997 363.997 420.882 364.022C420.769 364.048 420.63 364.063 420.466 364.067C420.176 364.076 419.915 364.032 419.683 363.936C419.451 363.838 419.267 363.687 419.13 363.482C418.996 363.278 418.93 363.022 418.932 362.715V357.915ZM423.438 364.099C423.127 364.099 422.847 364.044 422.597 363.933C422.35 363.82 422.154 363.654 422.009 363.434C421.866 363.215 421.795 362.944 421.795 362.623C421.795 362.346 421.846 362.116 421.948 361.935C422.051 361.754 422.19 361.609 422.367 361.501C422.544 361.392 422.743 361.31 422.965 361.255C423.188 361.197 423.42 361.156 423.658 361.13C423.946 361.1 424.179 361.074 424.358 361.05C424.537 361.025 424.667 360.986 424.748 360.935C424.831 360.882 424.873 360.8 424.873 360.689V360.67C424.873 360.429 424.801 360.243 424.659 360.11C424.516 359.978 424.31 359.912 424.042 359.912C423.758 359.912 423.534 359.974 423.367 360.098C423.203 360.221 423.093 360.367 423.035 360.536L421.955 360.382C422.04 360.084 422.181 359.835 422.377 359.634C422.573 359.432 422.812 359.281 423.096 359.18C423.379 359.078 423.692 359.027 424.035 359.027C424.272 359.027 424.507 359.055 424.742 359.11C424.976 359.165 425.19 359.257 425.384 359.385C425.578 359.511 425.734 359.682 425.851 359.9C425.97 360.117 426.03 360.388 426.03 360.714V364H424.918V363.326H424.879C424.809 363.462 424.71 363.59 424.582 363.709C424.456 363.826 424.297 363.921 424.106 363.994C423.916 364.064 423.693 364.099 423.438 364.099ZM423.738 363.249C423.97 363.249 424.172 363.203 424.342 363.112C424.513 363.018 424.644 362.894 424.735 362.741C424.829 362.587 424.876 362.42 424.876 362.239V361.661C424.84 361.69 424.778 361.718 424.691 361.744C424.605 361.769 424.509 361.792 424.403 361.811C424.296 361.83 424.191 361.847 424.087 361.862C423.982 361.877 423.892 361.89 423.815 361.9C423.642 361.924 423.488 361.962 423.351 362.015C423.215 362.069 423.108 362.143 423.029 362.239C422.95 362.333 422.91 362.454 422.91 362.603C422.91 362.816 422.988 362.977 423.144 363.086C423.299 363.195 423.497 363.249 423.738 363.249ZM429.68 359.091V359.986H426.778V359.091H429.68ZM427.503 364V358.627C427.503 358.297 427.571 358.022 427.708 357.803C427.846 357.583 428.032 357.419 428.264 357.311C428.496 357.202 428.754 357.148 429.037 357.148C429.237 357.148 429.415 357.164 429.571 357.196C429.726 357.228 429.842 357.256 429.916 357.282L429.686 358.177C429.637 358.162 429.575 358.147 429.501 358.132C429.426 358.115 429.343 358.107 429.251 358.107C429.036 358.107 428.884 358.159 428.794 358.263C428.707 358.365 428.663 358.512 428.663 358.704V364H427.503ZM433.072 359.091V359.986H430.17V359.091H433.072ZM430.896 364V358.627C430.896 358.297 430.964 358.022 431.1 357.803C431.239 357.583 431.424 357.419 431.656 357.311C431.889 357.202 432.146 357.148 432.43 357.148C432.63 357.148 432.808 357.164 432.964 357.196C433.119 357.228 433.234 357.256 433.309 357.282L433.079 358.177C433.03 358.162 432.968 358.147 432.893 358.132C432.819 358.115 432.736 358.107 432.644 358.107C432.429 358.107 432.276 358.159 432.187 358.263C432.1 358.365 432.056 358.512 432.056 358.704V364H430.896Z" fill="black"/>
<path d="M454.356 353.45C457.242 353.45 459.581 351.111 459.581 348.225C459.581 345.339 457.242 343 454.356 343C451.471 343 449.131 345.339 449.131 348.225C449.131 351.111 451.471 353.45 454.356 353.45Z" fill="#E64F18"/>
<path d="M463.546 366H445.167V363.374C445.167 358.294 449.276 354.185 454.357 354.185C459.437 354.185 463.546 358.294 463.546 363.374V366Z" fill="#E64F18"/>
<path d="M466.98 355V348.455H468.165V351.225H471.198V348.455H472.387V355H471.198V352.219H468.165V355H466.98ZM476.755 352.935V350.091H477.912V355H476.79V354.127H476.739C476.628 354.402 476.446 354.627 476.192 354.802C475.941 354.977 475.631 355.064 475.262 355.064C474.94 355.064 474.656 354.993 474.409 354.85C474.164 354.705 473.972 354.495 473.833 354.22C473.695 353.943 473.626 353.609 473.626 353.217V350.091H474.783V353.038C474.783 353.349 474.868 353.596 475.038 353.779C475.209 353.962 475.433 354.054 475.71 354.054C475.88 354.054 476.045 354.012 476.205 353.929C476.365 353.846 476.496 353.723 476.598 353.559C476.702 353.392 476.755 353.185 476.755 352.935ZM479.152 355V348.455H480.309V350.903H480.357C480.417 350.783 480.501 350.657 480.61 350.522C480.718 350.386 480.866 350.27 481.051 350.174C481.236 350.076 481.473 350.027 481.76 350.027C482.14 350.027 482.482 350.124 482.786 350.318C483.093 350.51 483.336 350.794 483.515 351.171C483.696 351.546 483.787 352.006 483.787 352.552C483.787 353.091 483.698 353.549 483.521 353.926C483.345 354.303 483.104 354.591 482.799 354.789C482.494 354.987 482.149 355.086 481.764 355.086C481.482 355.086 481.249 355.039 481.064 354.946C480.878 354.852 480.729 354.739 480.616 354.607C480.505 354.473 480.419 354.346 480.357 354.227H480.29V355H479.152ZM480.287 352.545C480.287 352.863 480.332 353.141 480.421 353.38C480.513 353.618 480.644 353.805 480.814 353.939C480.987 354.071 481.196 354.137 481.441 354.137C481.696 354.137 481.911 354.069 482.083 353.933C482.256 353.794 482.386 353.605 482.473 353.367C482.563 353.126 482.607 352.852 482.607 352.545C482.607 352.241 482.564 351.97 482.476 351.734C482.389 351.497 482.259 351.312 482.086 351.178C481.914 351.043 481.699 350.976 481.441 350.976C481.194 350.976 480.984 351.041 480.811 351.171C480.639 351.301 480.508 351.483 480.418 351.718C480.331 351.952 480.287 352.228 480.287 352.545ZM470.537 359.254C470.507 358.975 470.381 358.757 470.16 358.602C469.94 358.446 469.655 358.369 469.303 358.369C469.056 358.369 468.844 358.406 468.667 358.48C468.49 358.555 468.355 358.656 468.261 358.784C468.167 358.912 468.119 359.058 468.117 359.222C468.117 359.358 468.148 359.477 468.21 359.577C468.274 359.677 468.36 359.762 468.469 359.832C468.578 359.901 468.698 359.958 468.83 360.005C468.962 360.052 469.095 360.091 469.23 360.123L469.843 360.277C470.09 360.334 470.328 360.412 470.556 360.51C470.786 360.608 470.992 360.732 471.173 360.881C471.356 361.03 471.501 361.21 471.607 361.421C471.714 361.632 471.767 361.879 471.767 362.162C471.767 362.546 471.669 362.884 471.473 363.175C471.277 363.465 470.994 363.692 470.623 363.856C470.254 364.018 469.808 364.099 469.284 364.099C468.775 364.099 468.333 364.02 467.958 363.863C467.585 363.705 467.293 363.475 467.082 363.172C466.873 362.87 466.76 362.501 466.743 362.066H467.91C467.927 362.294 467.997 362.484 468.121 362.635C468.244 362.787 468.405 362.9 468.603 362.974C468.803 363.049 469.027 363.086 469.274 363.086C469.532 363.086 469.758 363.048 469.952 362.971C470.148 362.892 470.301 362.783 470.412 362.645C470.523 362.504 470.579 362.34 470.581 362.153C470.579 361.982 470.529 361.842 470.431 361.731C470.333 361.618 470.196 361.524 470.019 361.45C469.844 361.373 469.64 361.305 469.405 361.245L468.661 361.053C468.122 360.915 467.695 360.705 467.382 360.424C467.071 360.14 466.916 359.764 466.916 359.295C466.916 358.91 467.02 358.572 467.229 358.282C467.44 357.993 467.726 357.768 468.089 357.608C468.451 357.446 468.861 357.365 469.319 357.365C469.784 357.365 470.191 357.446 470.54 357.608C470.892 357.768 471.167 357.99 471.368 358.276C471.568 358.559 471.671 358.885 471.678 359.254H470.537ZM475.225 359.091V359.986H472.402V359.091H475.225ZM473.099 357.915H474.256V362.523C474.256 362.679 474.28 362.798 474.326 362.881C474.375 362.962 474.439 363.018 474.518 363.048C474.597 363.077 474.684 363.092 474.78 363.092C474.853 363.092 474.919 363.087 474.978 363.076C475.04 363.066 475.087 363.056 475.119 363.048L475.314 363.952C475.252 363.973 475.164 363.997 475.049 364.022C474.936 364.048 474.797 364.063 474.633 364.067C474.343 364.076 474.082 364.032 473.85 363.936C473.618 363.838 473.434 363.687 473.297 363.482C473.163 363.278 473.097 363.022 473.099 362.715V357.915ZM477.605 364.099C477.294 364.099 477.013 364.044 476.764 363.933C476.517 363.82 476.321 363.654 476.176 363.434C476.033 363.215 475.962 362.944 475.962 362.623C475.962 362.346 476.013 362.116 476.115 361.935C476.218 361.754 476.357 361.609 476.534 361.501C476.711 361.392 476.91 361.31 477.132 361.255C477.355 361.197 477.587 361.156 477.825 361.13C478.113 361.1 478.346 361.074 478.525 361.05C478.704 361.025 478.834 360.986 478.915 360.935C478.998 360.882 479.04 360.8 479.04 360.689V360.67C479.04 360.429 478.968 360.243 478.826 360.11C478.683 359.978 478.477 359.912 478.209 359.912C477.925 359.912 477.701 359.974 477.534 360.098C477.37 360.221 477.26 360.367 477.202 360.536L476.122 360.382C476.207 360.084 476.348 359.835 476.544 359.634C476.74 359.432 476.979 359.281 477.263 359.18C477.546 359.078 477.859 359.027 478.202 359.027C478.439 359.027 478.674 359.055 478.909 359.11C479.143 359.165 479.357 359.257 479.551 359.385C479.745 359.511 479.901 359.682 480.018 359.9C480.137 360.117 480.197 360.388 480.197 360.714V364H479.085V363.326H479.046C478.976 363.462 478.877 363.59 478.749 363.709C478.623 363.826 478.464 363.921 478.273 363.994C478.083 364.064 477.86 364.099 477.605 364.099ZM477.905 363.249C478.137 363.249 478.339 363.203 478.509 363.112C478.68 363.018 478.811 362.894 478.902 362.741C478.996 362.587 479.043 362.42 479.043 362.239V361.661C479.007 361.69 478.945 361.718 478.858 361.744C478.772 361.769 478.676 361.792 478.57 361.811C478.463 361.83 478.358 361.847 478.254 361.862C478.149 361.877 478.059 361.89 477.982 361.9C477.809 361.924 477.655 361.962 477.518 362.015C477.382 362.069 477.275 362.143 477.196 362.239C477.117 362.333 477.077 362.454 477.077 362.603C477.077 362.816 477.155 362.977 477.311 363.086C477.466 363.195 477.664 363.249 477.905 363.249ZM483.847 359.091V359.986H480.945V359.091H483.847ZM481.67 364V358.627C481.67 358.297 481.738 358.022 481.875 357.803C482.013 357.583 482.199 357.419 482.431 357.311C482.663 357.202 482.921 357.148 483.204 357.148C483.404 357.148 483.582 357.164 483.738 357.196C483.893 357.228 484.009 357.256 484.083 357.282L483.853 358.177C483.804 358.162 483.742 358.147 483.668 358.132C483.593 358.115 483.51 358.107 483.418 358.107C483.203 358.107 483.051 358.159 482.961 358.263C482.874 358.365 482.83 358.512 482.83 358.704V364H481.67ZM487.239 359.091V359.986H484.337V359.091H487.239ZM485.063 364V358.627C485.063 358.297 485.131 358.022 485.267 357.803C485.406 357.583 485.591 357.419 485.823 357.311C486.056 357.202 486.313 357.148 486.597 357.148C486.797 357.148 486.975 357.164 487.131 357.196C487.286 357.228 487.401 357.256 487.476 357.282L487.246 358.177C487.197 358.162 487.135 358.147 487.06 358.132C486.986 358.115 486.903 358.107 486.811 358.107C486.596 358.107 486.443 358.159 486.354 358.263C486.267 358.365 486.223 358.512 486.223 358.704V364H485.063Z" fill="black"/>
<path d="M506.523 353.45C509.409 353.45 511.748 351.111 511.748 348.225C511.748 345.339 509.409 343 506.523 343C503.638 343 501.298 345.339 501.298 348.225C501.298 351.111 503.638 353.45 506.523 353.45Z" fill="#F0906D"/>
<path d="M515.713 366H497.334V363.374C497.334 358.294 501.443 354.185 506.524 354.185C511.604 354.185 515.713 358.294 515.713 363.374V366Z" fill="#F0906D"/>
<path d="M519.147 355V348.455H520.332V351.225H523.365V348.455H524.554V355H523.365V352.219H520.332V355H519.147ZM528.922 352.935V350.091H530.079V355H528.957V354.127H528.906C528.795 354.402 528.613 354.627 528.359 354.802C528.108 354.977 527.798 355.064 527.429 355.064C527.107 355.064 526.823 354.993 526.576 354.85C526.331 354.705 526.139 354.495 526 354.22C525.862 353.943 525.793 353.609 525.793 353.217V350.091H526.95V353.038C526.95 353.349 527.035 353.596 527.205 353.779C527.376 353.962 527.6 354.054 527.877 354.054C528.047 354.054 528.212 354.012 528.372 353.929C528.532 353.846 528.663 353.723 528.765 353.559C528.869 353.392 528.922 353.185 528.922 352.935ZM531.319 355V348.455H532.476V350.903H532.524C532.584 350.783 532.668 350.657 532.777 350.522C532.885 350.386 533.032 350.27 533.218 350.174C533.403 350.076 533.64 350.027 533.927 350.027C534.307 350.027 534.649 350.124 534.953 350.318C535.26 350.51 535.503 350.794 535.682 351.171C535.863 351.546 535.954 352.006 535.954 352.552C535.954 353.091 535.865 353.549 535.688 353.926C535.512 354.303 535.271 354.591 534.966 354.789C534.661 354.987 534.316 355.086 533.931 355.086C533.649 355.086 533.416 355.039 533.231 354.946C533.045 354.852 532.896 354.739 532.783 354.607C532.672 354.473 532.586 354.346 532.524 354.227H532.457V355H531.319ZM532.454 352.545C532.454 352.863 532.499 353.141 532.588 353.38C532.68 353.618 532.811 353.805 532.981 353.939C533.154 354.071 533.363 354.137 533.608 354.137C533.863 354.137 534.078 354.069 534.25 353.933C534.423 353.794 534.553 353.605 534.64 353.367C534.73 353.126 534.774 352.852 534.774 352.545C534.774 352.241 534.731 351.97 534.643 351.734C534.556 351.497 534.426 351.312 534.253 351.178C534.081 351.043 533.866 350.976 533.608 350.976C533.361 350.976 533.151 351.041 532.978 351.171C532.806 351.301 532.675 351.483 532.585 351.718C532.498 351.952 532.454 352.228 532.454 352.545ZM519.147 364V357.455H523.34V358.449H520.332V360.225H523.052V361.219H520.332V364H519.147ZM526.182 364.096C525.69 364.096 525.265 363.994 524.907 363.789C524.551 363.582 524.277 363.29 524.085 362.913C523.893 362.534 523.798 362.088 523.798 361.574C523.798 361.069 523.893 360.626 524.085 360.245C524.279 359.861 524.55 359.563 524.897 359.35C525.244 359.135 525.652 359.027 526.121 359.027C526.424 359.027 526.709 359.076 526.978 359.174C527.248 359.27 527.487 359.419 527.694 359.621C527.902 359.824 528.066 360.082 528.186 360.395C528.305 360.706 528.365 361.077 528.365 361.507V361.862H524.341V361.082H527.256C527.254 360.86 527.206 360.663 527.112 360.491C527.018 360.316 526.887 360.179 526.719 360.078C526.553 359.978 526.359 359.928 526.137 359.928C525.901 359.928 525.693 359.986 525.514 360.101C525.335 360.214 525.195 360.363 525.095 360.548C524.997 360.732 524.947 360.933 524.945 361.152V361.833C524.945 362.119 524.997 362.364 525.102 362.568C525.206 362.771 525.352 362.926 525.539 363.035C525.727 363.141 525.946 363.195 526.198 363.195C526.366 363.195 526.518 363.171 526.655 363.124C526.791 363.075 526.909 363.004 527.01 362.91C527.11 362.816 527.185 362.7 527.237 362.562L528.317 362.683C528.249 362.969 528.119 363.218 527.927 363.431C527.737 363.642 527.494 363.806 527.198 363.923C526.902 364.038 526.563 364.096 526.182 364.096ZM530.5 357.455V364H529.343V357.455H530.5ZM532.847 357.455V364H531.69V357.455H532.847ZM536.178 364.096C535.699 364.096 535.283 363.99 534.932 363.779C534.58 363.569 534.307 363.273 534.114 362.894C533.922 362.515 533.826 362.072 533.826 361.565C533.826 361.058 533.922 360.613 534.114 360.232C534.307 359.85 534.58 359.554 534.932 359.343C535.283 359.132 535.699 359.027 536.178 359.027C536.658 359.027 537.073 359.132 537.425 359.343C537.776 359.554 538.048 359.85 538.24 360.232C538.434 360.613 538.53 361.058 538.53 361.565C538.53 362.072 538.434 362.515 538.24 362.894C538.048 363.273 537.776 363.569 537.425 363.779C537.073 363.99 536.658 364.096 536.178 364.096ZM536.185 363.169C536.445 363.169 536.662 363.098 536.837 362.955C537.011 362.81 537.141 362.616 537.226 362.373C537.314 362.13 537.358 361.86 537.358 361.561C537.358 361.261 537.314 360.989 537.226 360.746C537.141 360.501 537.011 360.306 536.837 360.162C536.662 360.017 536.445 359.944 536.185 359.944C535.918 359.944 535.697 360.017 535.52 360.162C535.345 360.306 535.214 360.501 535.127 360.746C535.041 360.989 534.999 361.261 534.999 361.561C534.999 361.86 535.041 362.13 535.127 362.373C535.214 362.616 535.345 362.81 535.52 362.955C535.697 363.098 535.918 363.169 536.185 363.169ZM540.385 364L538.998 359.091H540.177L541.04 362.543H541.085L541.967 359.091H543.134L544.016 362.523H544.064L544.914 359.091H546.096L544.706 364H543.501L542.581 360.683H542.513L541.593 364H540.385Z" fill="black"/>
<rect x="31" y="112" width="121" height="80" fill="black" fill-opacity="0.07"/>
<rect x="236" y="112" width="121" height="80" fill="black" fill-opacity="0.07"/>
<rect x="401" y="112" width="121" height="80" fill="black" fill-opacity="0.07"/>
<rect x="566" y="112" width="121" height="80" fill="black" fill-opacity="0.07"/>
<path d="M280.185 181.993C284.325 181.993 287.682 178.637 287.682 174.497C287.682 170.356 284.325 167 280.185 167C276.045 167 272.688 170.356 272.688 174.497C272.688 178.637 276.045 181.993 280.185 181.993Z" fill="black"/>
<path d="M293.37 200H267V196.233C267 188.943 272.896 183.048 280.185 183.048C287.474 183.048 293.37 188.943 293.37 196.233V200Z" fill="black"/>
<path d="M313.185 181.993C317.325 181.993 320.682 178.637 320.682 174.497C320.682 170.356 317.325 167 313.185 167C309.045 167 305.688 170.356 305.688 174.497C305.688 178.637 309.045 181.993 313.185 181.993Z" fill="#E64F18"/>
<path d="M326.37 200H300V196.233C300 188.943 305.896 183.048 313.185 183.048C320.474 183.048 326.37 188.943 326.37 196.233V200Z" fill="#E64F18"/>
<path d="M461.185 181.993C465.325 181.993 468.682 178.637 468.682 174.497C468.682 170.356 465.325 167 461.185 167C457.045 167 453.688 170.356 453.688 174.497C453.688 178.637 457.045 181.993 461.185 181.993Z" fill="#E64F18"/>
<path d="M474.37 200H448V196.233C448 188.943 453.896 183.048 461.185 183.048C468.474 183.048 474.37 188.943 474.37 196.233V200Z" fill="#E64F18"/>
<path d="M626.185 181.993C630.325 181.993 633.682 178.637 633.682 174.497C633.682 170.356 630.325 167 626.185 167C622.045 167 618.688 170.356 618.688 174.497C618.688 178.637 622.045 181.993 626.185 181.993Z" fill="#E64F18"/>
<path d="M639.37 200H613V196.233C613 188.943 618.896 183.048 626.185 183.048C633.474 183.048 639.37 188.943 639.37 196.233V200Z" fill="#E64F18"/>
</svg>
